<?xml version="1.0" encoding="utf-8"?>
<!-- Generator: Adobe Illustrator 21.0.2, SVG Export Plug-In . SVG Version: 6.00 Build 0)  -->
<svg version="1.1"
	 id="svg3025" inkscape:version="0.48.3.1 r9886" sodipodi:docname="double_angle_down_font_awesome.svg" xmlns:cc="http://creativecommons.org/ns#" xmlns:dc="http://purl.org/dc/elements/1.1/" xmlns:inkscape="http://www.inkscape.org/namespaces/inkscape" xmlns:rdf="http://www.w3.org/1999/02/22-rdf-syntax-ns#" xmlns:sodipodi="http://sodipodi.sourceforge.net/DTD/sodipodi-0.dtd" xmlns:svg="http://www.w3.org/2000/svg"
	 xmlns="http://www.w3.org/2000/svg" xmlns:xlink="http://www.w3.org/1999/xlink" x="0px" y="0px" viewBox="0 0 669.1 633.1"
	 style="enable-background:new 0 0 669.1 633.1;" xml:space="preserve">
<style type="text/css">
	.st0{fill:#FFFFFF;}
</style>
<sodipodi:namedview  bordercolor="#666666" borderopacity="1" gridtolerance="10" guidetolerance="10" id="namedview3031" inkscape:current-layer="svg3025" inkscape:cx="896" inkscape:cy="896" inkscape:pageopacity="0" inkscape:pageshadow="2" inkscape:window-height="480" inkscape:window-maximized="0" inkscape:window-width="640" inkscape:window-x="0" inkscape:window-y="25" inkscape:zoom="0.13169643" objecttolerance="10" pagecolor="#ffffff" showgrid="false">
	</sodipodi:namedview>
<g id="g3027" transform="matrix(1,0,0,-1,296.13559,1285.4237)">
	<path id="path3029" inkscape:connector-curvature="0" class="st0" d="M342.4,979.2c0-5.2-2-9.8-6-13.9L55.5,684.5
		c-4-4-8.6-6-13.9-6s-9.8,2-13.9,6L-253,965.4c-4,4-6,8.6-6,13.9c0,5.2,2,9.8,6,13.9l30.1,30.1c4,4,8.6,6,13.9,6c5.2,0,9.8-2,13.9-6
		L41.8,786.4l236.9,236.9c4,4,8.6,6,13.9,6s9.8-2,13.9-6l30.1-30.1C340.4,989.1,342.4,984.5,342.4,979.2z M342.4,1210.7
		c0-5.2-2-9.8-6-13.9L55.5,916c-4-4-8.6-6-13.9-6s-9.8,2-13.9,6L-253,1196.8c-4,4-6,8.6-6,13.9c0,5.2,2,9.8,6,13.9l30.1,30.1
		c4,4,8.6,6,13.9,6c5.2,0,9.8-2,13.9-6l236.8-236.9l236.9,236.9c4,4,8.6,6,13.9,6s9.8-2,13.9-6l30.1-30.1
		C340.4,1220.5,342.4,1215.9,342.4,1210.7z"/>
</g>
</svg>
